<svg id="Layer_1" enable-background="new 0 0 512 512" height="512" viewBox="0 0 512 512" width="512" xmlns="http://www.w3.org/2000/svg"><path d="m256 512c24.813 0 45-20.187 45-45v-15h151v-30c-1.903-5.961-3.189-41.224-40.725-75.938-12.249-11.327-19.275-27.388-19.275-44.062v-107c0-60.688-40.554-112.146-96.172-129.089 3.296-6.253 5.172-13.365 5.172-20.911 0-24.813-20.187-45-45-45s-45 20.187-45 45c0 7.546 1.876 14.658 5.172 20.911-55.618 16.942-96.172 68.401-96.172 129.089v107c0 16.674-7.025 32.734-19.275 44.062-26.261 24.286-40.724 54.888-40.725 86.169v19.769h151v15c0 24.813 20.187 45 45 45zm15-45c0 8.271-6.729 15-15 15s-15-6.729-15-15v-15h30zm-30-422c0-8.271 6.729-15 15-15s15 6.729 15 15-6.729 15-15 15-15-6.729-15-15zm-91 150c0-57.897 47.551-105 106-105 58.448 0 106 47.103 106 105v107c0 22.157 8.274 43.586 22.933 60h-257.867c14.66-16.414 22.934-37.843 22.934-60zm-48.428 197h308.856c5.674 9.607 9.363 19.733 10.837 30h-330.529c1.473-10.268 5.162-20.394 10.836-30z"/><path d="m80.625 7.74c-45.222 41.789-73.823 98.295-80.534 159.109l29.819 3.291c5.918-53.632 31.161-103.482 71.076-140.367z"/><path d="m511.909 166.849c-6.711-60.815-35.313-117.321-80.535-159.109l-20.359 22.033c39.915 36.884 65.157 86.734 71.076 140.367z"/><path d="m150.398 66.307-18.787-23.389c-40.669 32.668-66.198 79.034-71.884 130.558l29.819 3.291c4.808-43.573 26.419-82.802 60.852-110.46z"/><path d="m380.39 42.918-18.787 23.389c34.433 27.659 56.044 66.887 60.852 110.459l29.818-3.29c-5.685-51.523-31.213-97.889-71.883-130.558z"/></svg>