<?xml version="1.0" encoding="iso-8859-1"?>
<!-- Generator: Adobe Illustrator 21.0.0, SVG Export Plug-In . SVG Version: 6.00 Build 0)  -->
<svg xmlns="http://www.w3.org/2000/svg" xmlns:xlink="http://www.w3.org/1999/xlink" version="1.1" id="Capa_1" x="0px" y="0px" viewBox="0 0 512 512" style="enable-background:new 0 0 512 512;" xml:space="preserve" width="512" height="512">
<g>
	<path d="M378.353,46.5v-0.3c-11.696-19.992-6.306-10.725-22.5-38.699c-4.204-7.2-13.502-9.6-20.702-5.4L244.25,54.6l-22.5-39.001   c-4.2-7.2-13.202-9.598-20.402-5.7l-104.099,60c-7.2,4.2-9.598,13.5-5.398,20.7l22.5,39.001l-90.901,52.5   c-6.899,3.9-9.602,12.9-5.398,20.4c6.04,10.509,13.249,23.329,19.497,33.6c0,0,0,0.3,0.3,0.3c7.5,9.3,20.698,11.999,31.201,5.999   c59.863-34.919,300.86-173.686,300.86-173.686C378.577,63.774,379.874,55.615,378.353,46.5z M140.451,114.6l-15-26.1l77.999-45   l15,26.1L140.451,114.6z"/>
	<path d="M405.863,196.494c0.439-4.219-0.938-8.423-3.779-11.558c-2.842-3.149-6.885-4.937-11.133-4.937H236.944L83.268,268.731   L98.392,421H155.7l-13.363-134.506c-0.85-8.247,5.186-15.601,13.418-16.421c7.998-0.703,15.586,5.2,16.406,13.433L185.825,421   h40.126V285c0-8.291,6.709-15,15-15s15,6.709,15,15v136h40.126l13.663-137.494c0.791-8.232,8.408-14.092,16.406-13.433   c8.232,0.82,14.268,8.174,13.418,16.421L326.201,421h57.312L405.863,196.494z"/>
	<path d="M106.039,498.494C106.8,506.155,113.246,512,120.951,512h240c7.705,0,14.15-5.845,14.912-13.506L380.514,451H101.388   L106.039,498.494z"/>
	<path d="M480.951,90h-30c-8.291,0-15,6.709-15,15s6.709,15,15,15h30c8.291,0,15-6.709,15-15S489.242,90,480.951,90z"/>
	<path d="M431.556,154.395c-5.859-5.859-15.352-5.859-21.211,0s-5.859,15.352,0,21.211l30,30c5.86,5.86,15.351,5.86,21.211,0   c5.859-5.859,5.859-15.352,0-21.211L431.556,154.395z"/>
	<path d="M431.556,55.605l30-30c5.859-5.859,5.859-15.352,0-21.211s-15.352-5.859-21.211,0l-30,30   c-5.859,5.859-5.859,15.352,0,21.211C416.205,61.465,425.697,61.465,431.556,55.605z"/>
</g>















</svg>
