<svg id="Capa_1" enable-background="new 0 0 512 512" height="512" viewBox="0 0 512 512" width="512" xmlns="http://www.w3.org/2000/svg"><path d="m512 408.508c0-48.12-39.148-87.269-87.268-87.269-17.748 0-34.823 5.3-49.381 15.327-3.412 2.35-4.272 7.02-1.923 10.431 2.35 3.41 7.019 4.272 10.431 1.922 12.044-8.295 26.178-12.68 40.873-12.68 39.849 0 72.268 32.42 72.268 72.269 0 16.907-5.851 32.464-15.614 44.788-3.792-13.155-12.106-24.719-23.547-32.531 5.049-6.837 8.041-15.283 8.041-24.417 0-22.689-18.459-41.148-41.147-41.148-22.704 0-41.176 18.459-41.176 41.148 0 9.135 2.995 17.583 8.048 24.42-11.429 7.813-19.736 19.376-23.525 32.528-9.762-12.324-15.614-27.88-15.614-44.787 0-13.337 3.665-26.361 10.6-37.663 2.166-3.531 1.061-8.149-2.471-10.315-3.529-2.166-8.148-1.061-10.314 2.47-7.076 11.533-11.324 24.544-12.48 38.008h-45.455c-2.981-14.449-14.398-25.856-28.86-28.833v-88.556c26.446-1.471 50.87-10.637 71.049-25.318.619-.333 1.184-.751 1.684-1.237 32.512-24.436 53.58-63.316 53.58-107.027 0-73.786-60.028-133.815-133.813-133.815-32.362 0-63.597 11.707-87.951 32.964-24.122 21.054-39.918 50.016-44.479 81.55-.593 4.1 2.25 7.904 6.35 8.497 4.092.592 7.903-2.25 8.496-6.349 8.383-57.957 58.933-101.662 117.585-101.662 65.514 0 118.813 53.3 118.813 118.815 0 33.705-14.108 64.175-36.727 85.82-3.394-27.621-27.388-34.027-45.27-38.786-1.155-.308-2.304-.613-3.432-.919-1.185-.324-2.219-1.979-3.04-3.742 17.728-12.279 30.873-33.032 30.873-51.16v-16.441c0-20.503-6.561-37.917-18.971-50.358-11.109-11.137-26.067-17.419-42.119-17.69-.086-.001-.17-.001-.254 0-16.04.271-30.994 6.553-42.106 17.689-12.418 12.445-18.982 29.859-18.982 50.359v16.441c0 18.13 13.151 38.883 30.89 51.161-.825 1.763-1.862 3.415-3.048 3.739-1.138.309-2.286.615-3.441.922-17.857 4.753-41.81 11.148-45.255 38.674-18.676-17.838-31.656-41.706-35.515-68.657-.587-4.101-4.378-6.949-8.487-6.361-4.1.587-6.948 4.387-6.36 8.487 4.518 31.552 20.294 60.541 44.424 81.625 2.642 2.308 5.369 4.497 8.165 6.578.237.2.486.385.747.555 20.844 15.285 45.709 24.194 71.596 25.645v88.559c-14.447 2.978-25.853 14.384-28.831 28.831h-45.477c-3.815-44.622-41.335-79.769-86.913-79.769-17.78 0-34.858 5.301-49.389 15.331-3.409 2.353-4.265 7.024-1.911 10.433 2.353 3.408 7.022 4.264 10.433 1.912 12.013-8.292 26.145-12.676 40.867-12.676 39.832 0 72.238 32.42 72.238 72.269 0 16.908-5.85 32.467-15.61 44.791-3.787-13.158-12.092-24.723-23.522-32.533 5.049-6.837 8.041-15.284 8.041-24.418 0-22.689-18.458-41.148-41.146-41.148-22.704 0-41.176 18.459-41.176 41.148 0 9.134 2.994 17.58 8.045 24.416-11.43 7.809-19.737 19.373-23.525 32.53-9.761-12.325-15.612-27.881-15.612-44.787 0-13.325 3.658-26.352 10.578-37.674 2.16-3.534 1.046-8.15-2.488-10.311-3.532-2.159-8.149-1.047-10.311 2.488-8.36 13.679-12.779 29.411-12.779 45.497 0 48.121 39.148 87.27 87.268 87.27 45.578 0 83.097-35.147 86.913-79.77h45.473c3.476 16.887 18.446 29.623 36.332 29.623 17.901 0 32.883-12.736 36.361-29.623h45.445c1.998 23.361 13.234 44.125 30.034 58.608.4.425.845.806 1.334 1.128 15.105 12.507 34.476 20.033 55.573 20.033 21.096 0 40.467-7.526 55.572-20.032.49-.323.937-.705 1.338-1.132 18.576-16.015 30.357-39.709 30.357-66.105zm-424.732-38.309c14.417 0 26.146 11.73 26.146 26.148 0 14.434-11.729 26.176-26.146 26.176-14.434 0-26.176-11.743-26.176-26.176 0-14.418 11.742-26.148 26.176-26.148zm-43.8 95.74c1.178-14.417 9.478-27.416 22.075-34.635 6.311 3.937 13.755 6.22 21.725 6.22 7.962 0 15.398-2.282 21.703-6.216 12.595 7.221 20.893 20.221 22.068 34.639-12.156 9.294-27.326 14.83-43.771 14.83-16.457.001-31.638-5.539-43.8-14.838zm212.517-394.179c20.175.396 41.7 14.174 45.595 43.377-2.46-1.304-4.172-3.052-6.02-4.938-3.298-3.366-7.577-7.734-15.183-7.734-1.819 0-3.83.25-6.063.824-2.7.7-5.01 1.319-7.017 1.857-5.983 1.605-8.987 2.41-11.313 2.41-2.307 0-5.274-.795-11.187-2.379-2.036-.546-4.387-1.175-7.157-1.892-11.55-2.969-17.145 2.744-21.23 6.914-1.848 1.886-3.56 3.634-6.02 4.938 3.896-29.202 25.421-42.98 45.595-43.377zm-46.215 69.49v-10.007c9.188-2.212 13.977-7.096 17.356-10.545 3.349-3.417 3.624-3.696 6.771-2.887 2.711.701 5.019 1.319 7.019 1.855 6.956 1.864 10.787 2.891 15.069 2.891 4.303 0 8.173-1.038 15.198-2.922 1.973-.529 4.241-1.138 6.881-1.822 3.164-.812 3.434-.533 6.781 2.884 3.379 3.449 8.169 8.333 17.356 10.545v10.007c0 16.494-16.855 37.774-35.35 44.642-8.022 2.962-13.7 2.963-21.695.003-18.519-6.867-35.386-28.147-35.386-44.644zm69.413 66.169-19.705 11.552c-.1.059-.198.119-.295.182-3.195 2.078-3.194 2.08-6.394 0-.097-.063-.195-.124-.295-.182l-19.702-11.55c2.802-2.257 4.728-5.178 6.083-7.884.357.141.712.29 1.071.423 5.693 2.108 10.863 3.162 16.041 3.162 5.177 0 10.36-1.055 16.074-3.165.353-.131.703-.279 1.054-.417 1.349 2.705 3.269 5.623 6.068 7.879zm-90.703 35.314c0-17.915 9.642-23.823 25.873-28.734l30.413 17.829c4.029 2.595 7.624 3.892 11.22 3.892 3.595 0 7.189-1.297 11.219-3.892l30.413-17.829c16.231 4.911 25.873 10.82 25.873 28.734v5.022c-19.185 13.295-42.449 21.098-67.506 21.098-24.819 0-48.178-7.815-67.505-21.218zm67.505 187.898c-12.183 0-22.094-9.924-22.094-22.123 0-12.183 9.911-22.094 22.094-22.094 12.198 0 22.123 9.912 22.123 22.094 0 12.199-9.924 22.123-22.123 22.123zm168.747-60.432c14.418 0 26.147 11.73 26.147 26.148 0 14.434-11.729 26.176-26.147 26.176-14.434 0-26.176-11.743-26.176-26.176.001-14.418 11.743-26.148 26.176-26.148zm-43.798 95.74c1.179-14.408 9.479-27.406 22.076-34.634 6.311 3.936 13.753 6.218 21.722 6.218 7.962 0 15.398-2.282 21.704-6.216 12.608 7.225 20.916 20.222 22.095 34.631-12.162 9.298-27.343 14.839-43.8 14.839-16.455.001-31.635-5.539-43.797-14.838z"/></svg>