<svg height="512pt" viewBox="0 0 512 512" width="512pt" xmlns="http://www.w3.org/2000/svg"><path d="m333.011719 0h-154.023438c-35.28125 0-63.980469 28.703125-63.980469 63.980469v384.039062c0 35.277344 28.699219 63.980469 63.980469 63.980469h154.023438c35.277343 0 63.980469-28.703125 63.980469-63.980469v-91.222656c0-5.523437-4.476563-10-10-10-5.519532 0-10 4.476563-10 10v71.214844h-241.984376v-354.03125h241.984376v192.777343c0 5.523438 4.480468 10 10 10 5.523437 0 10-4.476562 10-10v-202.777343c0-35.277344-28.699219-63.980469-63.980469-63.980469zm43.980469 448.011719v.007812c0 24.25-19.726563 43.980469-43.980469 43.980469h-154.023438c-24.253906 0-43.980469-19.730469-43.980469-43.980469v-.007812zm-240.839844-394.03125c4.539062-19.449219 22.023437-33.980469 42.835937-33.980469h154.023438c20.8125 0 38.296875 14.53125 42.835937 33.980469zm0 0"/><path d="m256 110.5625c-14.183594 0-25.722656 11.539062-25.722656 25.722656v13.804688c-32.152344 10.777344-55.386719 41.191406-55.386719 76.925781v62.632813h-9.144531c-5.523438 0-10 4.476562-10 10v22.859374c0 14.882813 12.109375 26.992188 26.992187 26.992188h41.105469c.128906 17.625 14.503906 31.921875 32.15625 31.921875s32.027344-14.300781 32.15625-31.921875h41.105469c14.882812 0 26.992187-12.109375 26.992187-26.992188v-22.859374c0-5.523438-4.480468-10-10-10h-9.148437v-62.632813c0-35.734375-23.230469-66.148437-55.382813-76.925781v-13.804688c0-14.183594-11.539062-25.722656-25.722656-25.722656zm-5.722656 25.722656c0-3.152344 2.566406-5.71875 5.722656-5.71875s5.722656 2.566406 5.722656 5.71875v9.824219c-1.890625-.132813-3.796875-.199219-5.722656-.199219-1.921875 0-3.832031.066406-5.722656.199219zm5.722656 225.136719c-6.625 0-12.027344-5.324219-12.152344-11.921875h24.308594c-.128906 6.597656-5.53125 11.921875-12.15625 11.921875zm80.253906-38.914063c0 3.855469-3.136718 6.992188-6.992187 6.992188h-146.523438c-3.855469 0-6.992187-3.136719-6.992187-6.992188v-12.859374h160.507812zm-19.148437-95.492187v62.632813h-122.210938v-62.632813c0-33.695313 27.410157-61.105469 61.105469-61.105469s61.105469 27.410156 61.105469 61.105469zm0 0"/><path d="m386.988281 321.761719c-4.109375 0-7.894531-2.628907-9.339843-6.46875-1.449219-3.851563-.355469-8.332031 2.75-11.050781 3.203124-2.796876 7.902343-3.253907 11.589843-1.144532 3.667969 2.09375 5.648438 6.476563 4.8125 10.613282-.9375 4.613281-5.085937 8.050781-9.8125 8.050781zm0 0"/><path d="m270.246094 480.007812h-28.492188c-5.519531 0-10-4.480468-10-10 0-5.523437 4.480469-10 10-10h28.492188c5.523437 0 10 4.476563 10 10 0 5.519532-4.476563 10-10 10zm0 0"/><path d="m485.15625 317.378906c-2.054688 0-4.128906-.628906-5.910156-1.941406-4.449219-3.269531-5.410156-9.527344-2.140625-13.976562 9.746093-13.265626 14.894531-28.984376 14.894531-45.460938s-5.148438-32.195312-14.894531-45.460938c-3.269531-4.449218-2.3125-10.710937 2.140625-13.976562 4.449218-3.269531 10.707031-2.316406 13.980468 2.136719 12.28125 16.722656 18.773438 36.535156 18.773438 57.300781s-6.492188 40.578125-18.773438 57.300781c-1.960937 2.667969-4.996093 4.078125-8.070312 4.078125zm0 0"/><path d="m456.898438 296.167969c-2.019532 0-4.058594-.609375-5.824219-1.878907-4.484375-3.222656-5.511719-9.46875-2.292969-13.953124 5.113281-7.121094 7.816406-15.535157 7.816406-24.335938s-2.703125-17.214844-7.816406-24.332031c-3.21875-4.488281-2.191406-10.734375 2.292969-13.957031 4.484375-3.222657 10.734375-2.195313 13.953125 2.292968 7.566406 10.535156 11.566406 22.984375 11.566406 35.996094 0 13.015625-4 25.460938-11.566406 36-1.953125 2.71875-5.019532 4.167969-8.128906 4.167969zm0 0"/><path d="m26.84375 317.378906c-3.074219 0-6.109375-1.410156-8.070312-4.078125-12.28125-16.722656-18.773438-36.535156-18.773438-57.300781s6.492188-40.578125 18.773438-57.300781c3.273437-4.449219 9.53125-5.40625 13.980468-2.140625 4.449219 3.269531 5.40625 9.53125 2.140625 13.980468-9.746093 13.265626-14.894531 28.984376-14.894531 45.460938s5.148438 32.195312 14.894531 45.460938c3.269531 4.449218 2.3125 10.710937-2.140625 13.980468-1.78125 1.308594-3.855468 1.9375-5.910156 1.9375zm0 0"/><path d="m55.105469 296.167969c-3.113281 0-6.179688-1.449219-8.132813-4.167969-7.566406-10.539062-11.566406-22.988281-11.566406-36s4-25.460938 11.566406-36c3.21875-4.484375 9.464844-5.511719 13.953125-2.289062 4.484375 3.222656 5.511719 9.46875 2.292969 13.953124-5.113281 7.121094-7.816406 15.535157-7.816406 24.335938s2.703125 17.214844 7.816406 24.332031c3.21875 4.488281 2.191406 10.734375-2.292969 13.957031-1.765625 1.269532-3.804687 1.878907-5.820312 1.878907zm0 0"/></svg>