<?xml version="1.0" encoding="iso-8859-1"?>
<!-- Generator: Adobe Illustrator 19.0.0, SVG Export Plug-In . SVG Version: 6.00 Build 0)  -->
<svg version="1.1" id="Layer_1" xmlns="http://www.w3.org/2000/svg" xmlns:xlink="http://www.w3.org/1999/xlink" x="0px" y="0px"
	 viewBox="0 0 512 512" style="enable-background:new 0 0 512 512;" xml:space="preserve">
<path style="fill:#999999;" d="M282.201,238.254l77.843,109.521l-35.54,24.516l-68.786-96.777l-59.097,83.146l-35.54-24.516
	l68.154-95.888l-88.178-124.06l35.54-24.516l79.121,111.316l70.56-99.273l35.54,24.516L282.201,238.254z"/>
<path style="fill:#BFBFBF;" d="M360.044,347.774l-17.77,12.258L268.96,256.883l13.241-18.629L360.044,347.774z M326.278,101.721
	l-70.56,99.273L176.598,89.678l-17.769,12.258l83.649,117.689l-81.396,114.518l17.77,12.258l165.197-232.421L326.278,101.721z"/>
<path style="fill:#999999;" d="M190.443,57.202l9.922,65.914l-35.54,24.516l-59.48-31.729c-2.962-1.58-5.509-3.817-7.441-6.535
	l-21.947-30.88c-6.872-9.669-4.487-22.994,5.327-29.764l53.311-36.773c9.814-6.77,23.341-4.42,30.213,5.248l21.948,30.88
	C188.686,50.796,189.949,53.92,190.443,57.202z M422.311,41.127l-37.329,52.518c-6.872,9.669-20.398,12.017-30.212,5.248
	c-9.814-6.77-12.2-20.095-5.327-29.764l37.329-52.518c-19.628-13.539-46.681-8.84-60.426,10.497L301.461,62.12
	c-13.744,19.336-8.973,45.988,10.655,59.528l35.54,24.516c19.628,13.539,46.681,8.84,60.426-10.497l24.885-35.012
	C446.71,81.319,441.94,54.668,422.311,41.127z"/>
<path style="fill:#6D6D6D;" d="M123.313,103.509l59.48,31.729l-17.967,12.394l-59.48-31.729c-2.962-1.58-5.509-3.817-7.441-6.535
	l-21.948-30.88c-6.872-9.669-4.487-22.994,5.327-29.764L99.251,36.33c-9.814,6.77-12.2,20.095-5.327,29.764l21.948,30.88
	C117.804,99.691,120.351,101.929,123.313,103.509z M422.311,41.127l-3.337,4.695c6.316,13.38,5.432,29.617-3.778,42.575
	l-24.885,35.012c-13.743,19.336-40.797,24.036-60.426,10.497l17.77,12.258c19.628,13.539,46.681,8.84,60.426-10.497l24.885-35.012
	C446.71,81.319,441.94,54.668,422.311,41.127z"/>
<path style="fill:#809DED;" d="M437.669,494.249L437.669,494.249c-24.534,16.924-58.35,11.049-75.529-13.12l-74.656-105.037
	c-6.873-9.669-4.487-22.996,5.327-29.766l53.311-36.773c9.813-6.769,23.34-4.42,30.211,5.248l74.655,105.034
	C468.168,444.007,462.205,477.324,437.669,494.249z M219.191,345.532l-53.311-36.773c-9.813-6.769-23.34-4.42-30.211,5.248
	L61.014,419.041c-17.181,24.172-11.218,57.488,13.318,74.414l0,0c24.534,16.924,58.35,11.049,75.529-13.12l74.656-105.037
	C231.39,365.629,229.005,352.302,219.191,345.532z"/>
<path style="fill:#5D7EAC;" d="M449.572,483.048c-3.282,4.205-7.257,7.997-11.901,11.2l0,0
	c-24.535,16.925-58.352,11.051-75.532-13.12l-74.656-105.037c-6.872-9.669-4.487-22.994,5.327-29.764l26.655-18.387
	c-9.814,6.77-12.2,20.095-5.327,29.764l74.656,105.037C402.723,482.336,427.585,489.903,449.572,483.048z M219.192,345.533
	l-26.655-18.387c9.814,6.77,12.2,20.095,5.327,29.764l-74.656,105.037c-13.929,19.596-38.791,27.163-60.778,20.308
	c3.282,4.205,7.257,7.997,11.901,11.2l0,0c24.535,16.924,58.352,11.051,75.531-13.12l74.656-105.037
	C231.39,365.628,229.006,352.303,219.192,345.533z"/>
<path d="M161.745,353.817l-68.369,96.513c-1.576,2.224-4.07,3.412-6.604,3.412c-1.616,0-3.248-0.483-4.666-1.489
	c-3.643-2.582-4.503-7.627-1.923-11.272l68.369-96.513c2.58-3.642,7.627-4.504,11.269-1.923
	C163.466,345.127,164.327,350.174,161.745,353.817z M235.92,358.449c1.369,7.764-0.392,15.593-4.962,22.044L156.373,485.78
	c-12.096,17.075-31.44,26.22-51.074,26.22c-12.317,0-24.747-3.598-35.578-11.094c-13.68-9.468-22.792-23.646-25.661-39.923
	c-2.855-16.196,0.825-32.53,10.36-45.991l41.633-58.771c2.58-3.642,7.626-4.506,11.269-1.923c3.643,2.582,4.503,7.627,1.923,11.272
	l-41.633,58.771c-7.02,9.909-9.73,21.925-7.63,33.835c2.114,11.991,8.84,22.444,18.939,29.434
	c20.846,14.429,49.674,9.415,64.26-11.178l74.585-105.287c2.053-2.898,2.846-6.41,2.232-9.888c-0.619-3.51-2.592-6.573-5.559-8.626
	l-8.85-6.126c-0.016-0.011-0.032-0.023-0.049-0.033l-44.36-30.703c-6.162-4.265-14.68-2.793-18.986,3.285l-11.724,16.551
	c-2.579,3.642-7.626,4.504-11.269,1.923c-3.643-2.582-4.503-7.627-1.923-11.272l11.724-16.551
	c9.402-13.273,27.965-16.519,41.379-7.235l2.303,1.594l46.552-65.715l-59.629-84.176l-57.742-30.905
	c-4.044-2.164-7.577-5.278-10.215-9.006l-21.93-30.951c-4.568-6.45-6.33-14.278-4.962-22.042
	c1.374-7.797,5.735-14.586,12.279-19.115l53.26-36.862c13.412-9.285,31.974-6.038,41.379,7.235l21.928,30.953
	c2.647,3.736,4.405,8.099,5.083,12.619l9.627,64.168l47.284,66.75l44.846-63.307c-7.771-7.43-12.956-17.066-14.85-27.811
	c-2.36-13.385,0.68-26.883,8.56-38.007L319.016,22.8c16.257-22.948,48.361-28.555,71.564-12.496
	c1.775,1.229,2.986,3.117,3.361,5.245c0.376,2.127-0.115,4.316-1.365,6.078L355.283,74.27c-2.053,2.898-2.846,6.409-2.233,9.886
	c0.619,3.51,2.593,6.573,5.559,8.625c6.167,4.268,14.682,2.793,18.987-3.285l37.293-52.643c2.562-3.615,7.555-4.494,11.196-1.974
	c11.301,7.821,18.83,19.536,21.201,32.986c2.358,13.385-0.681,26.882-8.561,38.005l-24.861,35.095
	c-14.69,20.737-42.322,27.313-64.631,16.539l-127.75,180.338l2.154,1.491C230.183,343.864,234.545,350.652,235.92,358.449z
	 M229.142,224.367l16.55-23.362l-47.06-66.433l-8.147,5.638c-3.671,2.543-8.707,1.624-11.247-2.047
	c-2.541-3.672-1.624-8.708,2.046-11.249l10.58-7.323l-9.164-61.09c-0.304-2.028-1.095-3.988-2.286-5.67l-21.928-30.954
	c-4.307-6.079-12.825-7.554-18.987-3.287L119.591,32.37l32.566,45.973c2.58,3.643,1.72,8.69-1.923,11.272
	c-3.643,2.582-8.689,1.72-11.269-1.923l-32.67-46.12L86.24,55.452c-2.965,2.052-4.939,5.116-5.558,8.626
	c-0.613,3.477,0.18,6.989,2.232,9.886l21.928,30.953c1.198,1.692,2.806,3.11,4.651,4.097l59.422,31.804
	c1.104,0.592,2.057,1.431,2.782,2.454L229.142,224.367z M335.579,148.81l-7.713-5.34c-3.671-2.541-4.589-7.577-2.047-11.249
	c2.541-3.67,7.577-4.59,11.247-2.047l14.417,9.978c0.011,0.006,0.021,0.014,0.03,0.02c15.95,11.03,38.001,7.194,49.158-8.555
	l24.861-35.095c5.364-7.572,7.435-16.753,5.831-25.85c-1.146-6.502-4.068-12.414-8.428-17.208l-32.147,45.379
	c-9.402,13.273-27.965,16.521-41.38,7.235c-6.545-4.529-10.906-11.318-12.28-19.113c-1.369-7.764,0.393-15.593,4.962-22.043
	l32.016-45.195c-14.848-5.807-32.357-1.05-41.898,12.421l-24.861,35.095c-5.364,7.572-7.435,16.753-5.831,25.85
	c1.616,9.163,6.757,17.153,14.479,22.497c1.775,1.229,2.986,3.117,3.361,5.245c0.376,2.127-0.115,4.316-1.365,6.078L185.98,313.269
	l22.209,15.372L335.579,148.81z M110.744,473.132c1.419,1.006,3.05,1.489,4.666,1.489c2.533,0,5.028-1.188,6.604-3.412
	l68.369-96.513c2.58-3.643,1.72-8.69-1.923-11.272c-3.644-2.582-8.689-1.719-11.269,1.923l-68.369,96.513
	C106.239,465.505,107.1,470.552,110.744,473.132z M457.582,414.992l-41.633-58.771c-2.58-3.643-7.626-4.505-11.269-1.923
	s-4.503,7.627-1.923,11.272l41.633,58.771c7.02,9.909,9.73,21.925,7.63,33.835c-2.114,11.99-8.84,22.444-18.939,29.434
	c-20.848,14.428-49.673,9.414-64.26-11.178l-74.585-105.287c-2.053-2.898-2.846-6.41-2.232-9.889
	c0.619-3.51,2.592-6.573,5.559-8.626l53.258-36.861c6.163-4.266,14.682-2.793,18.986,3.287l11.724,16.551
	c2.582,3.643,7.626,4.504,11.269,1.923c3.643-2.582,4.503-7.627,1.923-11.272l-11.724-16.551
	c-9.404-13.274-27.968-16.518-41.379-7.236l-2.842,1.967l-29.679-41.897c-2.579-3.643-7.626-4.505-11.27-1.923
	c-3.643,2.582-4.503,7.627-1.923,11.272l29.575,41.75l-22.209,15.372l-22.352-31.553c-2.579-3.643-7.626-4.506-11.269-1.923
	c-3.643,2.582-4.503,7.627-1.923,11.272l22.249,31.408l-1.615,1.118c-6.545,4.53-10.907,11.318-12.282,19.115
	c-1.369,7.764,0.392,15.593,4.962,22.044l74.584,105.287c12.097,17.076,31.438,26.222,51.074,26.22
	c12.315,0,24.75-3.599,35.578-11.094c13.68-9.468,22.792-23.646,25.661-39.923C470.797,444.786,467.118,428.453,457.582,414.992z
	 M323.543,363.426c-3.643,2.582-4.503,7.627-1.923,11.272l68.369,96.513c1.576,2.225,4.07,3.412,6.604,3.412
	c1.616,0,3.248-0.483,4.666-1.489c3.643-2.582,4.503-7.627,1.923-11.272l-68.369-96.513
	C332.23,361.706,327.186,360.845,323.543,363.426z M425.228,453.741c1.616,0,3.248-0.483,4.666-1.489
	c3.643-2.582,4.503-7.627,1.923-11.272l-68.369-96.513c-2.581-3.643-7.627-4.504-11.269-1.923
	c-3.643,2.582-4.503,7.627-1.923,11.272l68.369,96.513C420.202,452.554,422.695,453.741,425.228,453.741z"/>
<g>
</g>
<g>
</g>
<g>
</g>
<g>
</g>
<g>
</g>
<g>
</g>
<g>
</g>
<g>
</g>
<g>
</g>
<g>
</g>
<g>
</g>
<g>
</g>
<g>
</g>
<g>
</g>
<g>
</g>
</svg>
